<svg height="512" viewBox="0 0 512 512" width="512" xmlns="http://www.w3.org/2000/svg" xmlns:xlink="http://www.w3.org/1999/xlink"><linearGradient id="linear-gradient" gradientUnits="userSpaceOnUse" x1="112" x2="400" y1="256" y2="256"><stop offset="0" stop-color="#41dfd0"/><stop offset="1" stop-color="#ee83ef"/></linearGradient><path d="m376 16h-240a24.028 24.028 0 0 0 -24 24v432a24.028 24.028 0 0 0 24 24h240a24.028 24.028 0 0 0 24-24v-432a24.028 24.028 0 0 0 -24-24zm8 456a8.009 8.009 0 0 1 -8 8h-240a8.009 8.009 0 0 1 -8-8v-40h256zm0-56h-256v-352h256zm0-368h-256v-8a8.009 8.009 0 0 1 8-8h240a8.009 8.009 0 0 1 8 8zm-232 304h25.376a24 24 0 0 0 45.248 0h66.752a24 24 0 0 0 45.248 0h9.376a7.994 7.994 0 0 0 3.578-.845l16-8a8 8 0 0 0 4.422-7.155v-32a8 8 0 0 0 -5.47-7.59l-21.63-7.21-22.5-30a8 8 0 0 0 -6.4-3.2h-8v-16.6a48.024 48.024 0 0 0 35.207-68.343 47.59 47.59 0 0 0 -27.481-24.381 48.621 48.621 0 0 0 -25.06-1.748 23.869 23.869 0 0 0 -7.356-9.009l-19.218-14.376a8 8 0 0 0 -11.2 1.614l-4.792 6.406-6.406-4.793 9.584-12.811-12.812-9.584-9.584 12.812-12.81-9.587 9.584-12.812-12.812-9.584-9.584 12.816-6.406-4.792a8 8 0 0 0 -11.2 1.614l-19.168 25.624a8 8 0 0 0 1.614 11.2l51.25 38.334-4.792 6.406a8 8 0 0 0 1.614 11.2l19.218 14.374a23.82 23.82 0 0 0 14.325 4.787 24.405 24.405 0 0 0 3.475-.25c.152-.022.3-.063.448-.088a48.4 48.4 0 0 0 30.586 32.957 47.483 47.483 0 0 0 7.776 2.014v16.6h-56a8 8 0 0 0 -6.4 3.2l-21.6 28.8h-12a48.055 48.055 0 0 0 -48 48v8a8 8 0 0 0 8 8zm48 0a8 8 0 1 1 8-8 8.009 8.009 0 0 1 -8 8zm112 0a8 8 0 1 1 8-8 8.009 8.009 0 0 1 -8 8zm-131.908-230.356 9.584-12.812 44.842 33.544-9.584 12.812zm72.08 63.91a8 8 0 0 1 -11.2 1.614l-12.812-9.584 28.752-38.436 12.812 9.584a8 8 0 0 1 1.614 11.2zm33.349 36.734a32.268 32.268 0 0 1 -21.264-26.271c.242-.294.5-.573.727-.879l19.168-25.624a23.958 23.958 0 0 0 4.077-8.56 32.635 32.635 0 0 1 18.283.849 32 32 0 0 1 19.772 40.689 32.158 32.158 0 0 1 -22.344 20.569 7.995 7.995 0 0 0 -15.88 0q-1.29-.334-2.539-.773zm2.479 49.712h20l12 16h-32zm-3.2 54.4a8 8 0 0 0 3.2-6.4v-16h46.7l17.3 5.766v21.29l-9.889 4.944h-7.487a24 24 0 0 0 -45.248 0h-17.376zm-48.8-54.4h36v16h-48zm-44 32h80v12l-26.667 20h-22.709a24 24 0 0 0 -45.248 0h-17.376a32.036 32.036 0 0 1 32-32zm88 160h-56v-16h56zm40 0h-16v-16h16zm-72-80h16v16h-16zm32 0h16v16h-16zm-64 0h16v16h-16z" fill="url(#linear-gradient)"/></svg>